{"title":"Munde Patiale De 2013 Hindi Punjabi DVDScr Sample Included ~ rDX","uid":8078647,"size":734454640,"categoryP":"video","categoryS":"movies","magnet":"?xt=urn:btih:cdaea0cdf3127dca11f672423d3416343631fa39&amp;dn=Munde+Patiale+De+2013+Hindi+Punjabi+DVDScr+Sample+Included+%7E+rDX&amp;tr=udp%3A%2F%2Ftracker.openbittorrent.com%3A80&amp;tr=udp%3A%2F%2Fopen.demonii.com%3A1337&amp;tr=udp%3A%2F%2Ftracker.coppersurfer.tk%3A6969&amp;tr=udp%3A%2F%2Fexodus.desync.com%3A6969","seeders":1,"leechers":2,"uploader":"basicssom","files":2,"time":1359443320,"description":"Munde Patiale De 2013 Hindi Punjabi Movies DVDScr Sample Included ~ rDX\n\nScreen Shots :\n &lt;a href=&quot;\nhttp://myimghosting.serveftp.com/MundePatialeDe.html&quot; rel=&quot;nofollow&quot; target=&quot;_NEW&quot;&gt;\nhttp://myimghosting.serveftp.com/MundePatialeDe.html&lt;/a&gt;\n &lt;a href=&quot;\nhttp://myimghost.cwahi.net/MundePatialeDe.html&quot; rel=&quot;nofollow&quot; target=&quot;_NEW&quot;&gt;\nhttp://myimghost.cwahi.net/MundePatialeDe.html&lt;/a&gt;\n\n\nFormat                                   : MPEG-4\nFormat profile                           : Base Media\nCodec ID                                 : isom\nFile size                                : 691 MiB\nDuration                                 : 1h 44mn\nOverall bit rate mode                    : Variable\nOverall bit rate                         : 923 Kbps\nWriting application                      : Lavf52.61.0\n\nVideo\nID                                       : 1\nFormat                                   : MPEG-4 Visual\nFormat profile                           : Simple@L3\nFormat settings, BVOP                    : No\nFormat settings, QPel                    : No\nFormat settings, GMC                     : No warppoints\nFormat settings, Matrix                  : Default (H.263)\nCodec ID                                 : 20\nDuration                                 : 1h 44mn\nBit rate                                 : 426 Kbps\nWidth                                    : 640 pixels\nHeight                                   : 288 pixels\nDisplay aspect ratio                     : 16:9\nFrame rate mode                          : Variable\nFrame rate                               : 25.000 fps\nOriginal frame rate                      : 29.970 fps\nMinimum frame rate                       : 14.985 fps\nMaximum frame rate                       : 29.970 fps\nColor space                              : YUV\nChroma subsampling                       : 4:2:0\nBit depth                                : 8 bits\nScan type                                : Progressive\nCompression mode                         : Lossy\nBits/(Pixel*Frame)                       : 0.093\nStream size                              : 319 MiB (46%)\nWriting library                          : XviD 1.2.1 (UTC 2008-12-04)\n\nAudio\nID                                       : 2\nFormat                                   : AAC\nFormat/Info                              : Advanced Audio Codec\nFormat profile                           : LC\nCodec ID                                 : 40\nDuration                                 : 1h 44mn\nBit rate mode                            : Variable\nBit rate                                 : 64.0 Kbps\nChannel(s)                               : 2 channels\nChannel positions                        : Front: L R\nSampling rate                            : 24.0 KHz\nCompression mode                         : Lossy\nStream size                              : 47.9 MiB (7%)","torrent":{"xt":"urn:btih:cdaea0cdf3127dca11f672423d3416343631fa39","amp;dn":"Munde+Patiale+De+2013+Hindi+Punjabi+DVDScr+Sample+Included+%7E+rDX","amp;tr":["udp%3A%2F%2Ftracker.openbittorrent.com%3A80","udp%3A%2F%2Fopen.demonii.com%3A1337","udp%3A%2F%2Ftracker.coppersurfer.tk%3A6969","udp%3A%2F%2Fexodus.desync.com%3A6969"],"infoHash":"cdaea0cdf3127dca11f672423d3416343631fa39","infoHashBuffer":{"type":"Buffer","data":[205,174,160,205,243,18,125,202,17,246,114,66,61,52,22,52,54,49,250,57]},"announce":[],"urlList":[]}}